<svg width="28" height="28" viewBox="0 0 28 28" fill="none" xmlns="http://www.w3.org/2000/svg">
<g clip-path="url(#clip0_4333_5140)">
<path d="M26.2189 13.4475L14.5522 1.78086C14.4065 1.636 14.2094 1.55469 14.0039 1.55469C13.7984 1.55469 13.6013 1.636 13.4556 1.78086L1.78889 13.4475C1.66147 13.5963 1.59489 13.7877 1.60245 13.9835C1.61001 14.1792 1.69116 14.3649 1.82967 14.5034C1.96819 14.6419 2.15388 14.7231 2.34963 14.7306C2.54537 14.7382 2.73677 14.6716 2.88556 14.5442L14 3.42975L25.1144 14.552C25.2632 14.6794 25.4546 14.746 25.6504 14.7384C25.8461 14.7309 26.0318 14.6497 26.1703 14.5112C26.3088 14.3727 26.39 14.187 26.3976 13.9912C26.4051 13.7955 26.3385 13.6041 26.2111 13.4553L26.2189 13.4475Z" fill="#56C596"/>
<path d="M21.7778 24.889H17.8889V17.1113H10.1111V24.889H6.22224V14.0001L4.66669 15.5557V24.889C4.66669 25.3016 4.83058 25.6973 5.1223 25.989C5.41402 26.2807 5.80968 26.4446 6.22224 26.4446H11.6667V18.6668H16.3334V26.4446H21.7778C22.1904 26.4446 22.586 26.2807 22.8777 25.989C23.1695 25.6973 23.3334 25.3016 23.3334 24.889V15.369L21.7778 13.8135V24.889Z" fill="#56C596"/>
</g>
<defs>
<clipPath id="clip0_4333_5140">
<rect width="28" height="28" fill="white"/>
</clipPath>
</defs>
</svg>
