<svg width="24" height="24" viewBox="0 0 24 24" fill="none" xmlns="http://www.w3.org/2000/svg">
<path d="M6.42901 2.41331C6.55508 2.26284 6.61714 2.06894 6.60184 1.87322C6.58655 1.67751 6.49514 1.49559 6.34722 1.36653C6.19931 1.23746 6.00668 1.17153 5.8107 1.1829C5.61472 1.19426 5.43101 1.28202 5.29901 1.42731L4.00701 2.90731C3.27439 3.74688 2.86024 4.81728 2.83701 5.93131L2.78001 8.65031C2.77797 8.74881 2.79535 8.84673 2.83117 8.93851C2.86698 9.03028 2.92051 9.1141 2.98872 9.18518C3.05692 9.25627 3.13846 9.31322 3.22867 9.35279C3.31889 9.39236 3.41601 9.41378 3.51451 9.41581C3.613 9.41785 3.71093 9.40047 3.8027 9.36466C3.89447 9.32885 3.97829 9.27531 4.04938 9.2071C4.12046 9.1389 4.17741 9.05736 4.21698 8.96715C4.25656 8.87693 4.27797 8.77981 4.28001 8.68131L4.33601 5.96331C4.35205 5.20104 4.63558 4.46867 5.13701 3.89431L6.42901 2.41331Z" fill="#505050"/>
<path fill-rule="evenodd" clip-rule="evenodd" d="M6.23701 7.7C6.30417 6.63014 6.77653 5.62608 7.55793 4.89224C8.33934 4.15839 9.37104 3.74993 10.443 3.75H11V3C11 2.73478 11.1054 2.48043 11.2929 2.29289C11.4804 2.10536 11.7348 2 12 2C12.2652 2 12.5196 2.10536 12.7071 2.29289C12.8947 2.48043 13 2.73478 13 3V3.75H13.557C14.629 3.74993 15.6607 4.15839 16.4421 4.89224C17.2235 5.62608 17.6959 6.63014 17.763 7.7L17.984 11.234C18.0682 12.5815 18.5207 13.88 19.292 14.988C19.4514 15.2171 19.5488 15.4835 19.5747 15.7613C19.6006 16.0392 19.5542 16.319 19.4399 16.5736C19.3256 16.8281 19.1474 17.0488 18.9226 17.2142C18.6978 17.3795 18.4341 17.4838 18.157 17.517L14.75 17.925V19C14.75 19.7293 14.4603 20.4288 13.9446 20.9445C13.4288 21.4603 12.7294 21.75 12 21.75C11.2707 21.75 10.5712 21.4603 10.0555 20.9445C9.53974 20.4288 9.25001 19.7293 9.25001 19V17.925L5.84301 17.516C5.56611 17.4827 5.30252 17.3784 5.07786 17.2131C4.85319 17.0478 4.6751 16.8273 4.56086 16.5729C4.44663 16.3184 4.40015 16.0388 4.42593 15.7611C4.45172 15.4834 4.54889 15.2171 4.70801 14.988C5.47931 13.8799 5.93174 12.5814 6.01601 11.234L6.23701 7.7ZM10.443 5.25C9.75258 5.24992 9.08808 5.51297 8.58479 5.98561C8.0815 6.45825 7.77726 7.10493 7.73401 7.794L7.51401 11.328C7.41235 12.949 6.86793 14.511 5.94001 15.844C5.92848 15.8606 5.92143 15.8798 5.91955 15.8999C5.91766 15.92 5.92101 15.9403 5.92927 15.9587C5.93752 15.9771 5.9504 15.9931 5.96665 16.005C5.9829 16.017 6.00197 16.0246 6.02201 16.027L9.75901 16.476C11.248 16.654 12.752 16.654 14.241 16.476L17.978 16.027C17.998 16.0246 18.0171 16.017 18.0334 16.005C18.0496 15.9931 18.0625 15.9771 18.0708 15.9587C18.079 15.9403 18.0824 15.92 18.0805 15.8999C18.0786 15.8798 18.0715 15.8606 18.06 15.844C17.1324 14.5109 16.5883 12.9489 16.487 11.328L16.266 7.794C16.2228 7.10493 15.9185 6.45825 15.4152 5.98561C14.9119 5.51297 14.2474 5.24992 13.557 5.25H10.443ZM12 20.25C11.31 20.25 10.75 19.69 10.75 19V18.25H13.25V19C13.25 19.69 12.69 20.25 12 20.25Z" fill="#505050"/>
<path d="M17.643 1.35471C17.4932 1.48548 17.4014 1.6704 17.3879 1.8688C17.3744 2.0672 17.4403 2.26285 17.571 2.41271L18.863 3.89271C19.3643 4.46747 19.6475 5.20022 19.663 5.96271L19.72 8.67971C19.7241 8.87862 19.8071 9.06776 19.9506 9.2055C20.0942 9.34325 20.2866 9.41832 20.4855 9.41421C20.6844 9.4101 20.8735 9.32714 21.0113 9.18358C21.149 9.04002 21.2241 8.84762 21.22 8.64871L21.163 5.93071C21.1398 4.81668 20.7256 3.74628 19.993 2.90671L18.701 1.42671C18.5702 1.2769 18.3853 1.18516 18.1869 1.17165C17.9885 1.15815 17.7929 1.224 17.643 1.35471Z" fill="#505050"/>
</svg>
